<svg width="22" height="21" viewBox="0 0 22 21" fill="none" xmlns="http://www.w3.org/2000/svg">
<path d="M16.3693 20.4998C7.88561 20.4888 1.011 13.6005 1 5.10005C1 2.55957 3.05538 0.500114 5.59082 0.500114C5.84864 0.498147 6.10604 0.521592 6.35928 0.570113C6.6041 0.606413 6.84478 0.666701 7.07784 0.750111C7.41137 0.867366 7.65812 1.15264 7.72655 1.5001L9.09381 7.50001C9.16869 7.83092 9.071 8.17731 8.83433 8.42C8.70459 8.56 8.69461 8.57 7.46706 9.20999C8.45009 11.3708 10.1748 13.1061 12.3273 14.0999C12.976 12.8599 12.986 12.8499 13.1257 12.7199C13.368 12.4828 13.7137 12.3849 14.0439 12.4599L20.0319 13.8299C20.3673 13.9079 20.6389 14.1536 20.7505 14.4799C20.8347 14.7173 20.8982 14.9615 20.9401 15.2099C20.9803 15.4612 21.0003 15.7154 21 15.9699C20.9617 18.4986 18.8932 20.5221 16.3693 20.4998V20.4998Z" stroke="#6E6E6E"/>
</svg>
